<?xml version="1.0" encoding="iso-8859-1"?>
<!-- Generator: Adobe Illustrator 18.1.1, SVG Export Plug-In . SVG Version: 6.00 Build 0)  -->
<svg version="1.1" id="Capa_1" xmlns="http://www.w3.org/2000/svg" xmlns:xlink="http://www.w3.org/1999/xlink" x="0px" y="0px"
	 viewBox="0 0 26.076 26.076" style="enable-background:new 0 0 26.076 26.076;" xml:space="preserve">
<g>
	<path style="fill:#fff;" d="M25.206,3.074c0.128,0.19,0.003,0.581,0.003,0.581l-0.527-0.229l0.29-0.513
		C24.972,2.913,25.08,2.884,25.206,3.074z M19.79,1.851c-0.065,0.477,1.452-0.031,1.452-0.031l-0.168-1.193
		C21.074,0.627,20.132,1.23,19.79,1.851z M22.205,1.546l0.647-0.198c0,0-0.769-1.216-1.637-0.733l0.116,0.438
		C21.333,1.052,22.029,0.924,22.205,1.546z M21.32,1.18l0.134,0.561l0.555-0.196c0,0,0.048-0.103-0.117-0.262
		C21.726,1.124,21.32,1.18,21.32,1.18z M17.068,1.559l-0.874-0.83c0,0-0.365,1.059-0.245,1.757
		C16.196,2.901,17.068,1.559,17.068,1.559z M17.649,0.746l0.385-0.558c0,0-1.359-0.474-1.738,0.441l0.365,0.272
		C16.661,0.901,17.123,0.367,17.649,0.746z M16.73,1.009l0.451,0.354l0.312-0.5c0.001,0.001-0.024-0.107-0.254-0.129
		C17.012,0.713,16.73,1.009,16.73,1.009z M18.643,4.587l0.005,0.002c0.006,0.002,0.07,0.031,0.162,0.082
		c-0.009-0.093-0.024-0.185-0.055-0.271c-0.049-0.148-0.128-0.286-0.234-0.413l0.11,0.537C18.634,4.533,18.638,4.556,18.643,4.587z
		 M19.554,5.261c0.01,0.01,0.017,0.022,0.024,0.033c0.043-0.02,0.08-0.036,0.102-0.049C19.732,5.216,19.665,5.231,19.554,5.261z
		 M25.338,3.661c0,0,0.243-0.653-0.328-0.938c-0.154,0.297-0.361,0.652-0.637,1.062c0,0-0.209,0.391-0.198,0.752
		c0.114-0.409,0.391-0.917,0.391-0.917l1.146,0.371c0,0-0.757,0.824-1.428,1.053c-0.026-0.001-0.05-0.007-0.07-0.015
		c-0.076,0.032-0.181,0.072-0.302,0.108c0.381,0.028,1.136-0.006,1.646-0.613c0,0-1.215,2.259-2.61,0.637
		c0.062,0.264-0.154,0.714-0.354,0.906c-0.057,0.004-0.113,0.007-0.173,0.012c0.018,0.04,0.031,0.081,0.044,0.127
		c0.267-0.024,0.499-0.057,0.61-0.109c0,0-0.278,0.707-1.604,1.884c0,0-0.623,0.673-0.314,1.136c0,0-0.203,0.054-0.47,0.06
		c0.36,0.123,1.102,0.277,1.747-0.183c0,0-0.341,0.369-0.802,0.616c0.251-0.036,0.596-0.074,1.095-0.123
		c0.899-0.057,0.335,0.846-0.047,1.089c-0.601-0.079-1.297-0.225-1.297-0.225c-0.052-0.007-0.146,0.034-0.261,0.103
		c0.154,0.03,0.739,0.15,1.258,0.216c0.327,0.043,0.625,0.063,0.768,0.028c0,0-0.412,0.64-1.944,1.53c0,0-0.744,0.538-0.535,1.051
		c0,0-0.21,0.012-0.473-0.034c0.331,0.193,1.025,0.491,1.751,0.167c0,0-2.184,1.585-2.669-0.712l0.024,0.015
		c-0.066-0.115-0.109-0.255-0.118-0.425c0,0-0.004-0.046-0.003-0.122c-0.162,0.037-0.489,0.098-0.585,0.015
		c-0.029-0.026-0.187-0.031-0.399-0.025l0.1,0.048c0,0-0.114,0.094-0.289,0.218c0.068,0.062,0.151,0.112,0.203,0.185
		c0.104,0.138,0.176,0.295,0.213,0.48c0.034,0.184,0.048,0.383-0.029,0.647c-0.281-0.016-0.471-0.094-0.639-0.188
		c-0.13-0.075-0.224-0.178-0.312-0.284c-0.534,0.517-1.569,1.196-2.399-0.245l0.029,0.007c-0.101-0.09-0.185-0.208-0.246-0.367
		c0,0-0.02-0.042-0.04-0.116c-0.062,0.037-0.153,0.087-0.246,0.13c0.01,0.003,0.012,0.003,0.021,0.007
		c0.026,0.015,0.072,0.047,0.072,0.047s-0.022,0.001-0.033,0.006c-0.008,0.004-0.013,0.013-0.013,0.013s0.037,0.02,0.06,0.046
		c0.021,0.024,0.036,0.062,0.036,0.062s-0.009-0.002-0.023,0c-0.014,0.003-0.017,0.012-0.017,0.012s0.033,0.029,0.049,0.054
		c0.016,0.023,0.032,0.074,0.032,0.074s-0.028-0.007-0.041-0.008c-0.012-0.001-0.028,0.001-0.028,0.001s0.023,0.037,0.036,0.066
		c0.013,0.029,0.033,0.093,0.033,0.093s-0.009-0.006-0.026-0.011c-0.019-0.005-0.025-0.006-0.025-0.006s0.02,0.044,0.029,0.069
		c0.009,0.027,0.023,0.071,0.023,0.071s-0.01-0.009-0.024-0.011c-0.018-0.004-0.026,0.002-0.026,0.002s0.018,0.04,0.021,0.066
		c0.005,0.028,0.007,0.062,0.007,0.062s-0.062-0.013-0.094-0.028c-0.032-0.017-0.076-0.051-0.076-0.051s-0.004,0.015-0.006,0.033
		c0,0.013,0.006,0.049,0.006,0.049s-0.049-0.028-0.069-0.046c-0.022-0.017-0.054-0.058-0.054-0.058s-0.004,0.004-0.006,0.021
		c0,0.015,0.002,0.033,0.002,0.033s-0.063-0.039-0.096-0.062c-0.03-0.022-0.071-0.074-0.071-0.074s-0.001,0.023-0.003,0.038
		c0.001,0.015,0.001,0.034,0.001,0.034s-0.036-0.036-0.059-0.062c-0.023-0.028-0.052-0.077-0.052-0.077s-0.004,0.01-0.009,0.025
		c-0.005,0.011-0.011,0.026-0.011,0.026s-0.031-0.062-0.039-0.086c-0.008-0.023-0.02-0.079-0.02-0.079s-0.013,0.012-0.019,0.027
		c-0.008,0.017-0.012,0.033-0.012,0.033s-0.027-0.175,0.008-0.305c-0.159,0.048-0.385,0.132-0.64,0.235l-0.012,0.012
		c0.048,0.007,0.094,0.014,0.141,0.023c0.118,0.025,0.209,0.085,0.308,0.136l0.015-0.015c0,0,1.91,0.607,2.779,2.084
		c0,0,0.562,0.652-0.869,1.215c-0.132,1.174-1.043,1.043-1.043,1.043l-0.039-0.021l-0.297-0.281
		c-0.005-0.004-0.462-0.436-0.945-0.92c-1.316-1.318-1.248-1.406-1.168-1.509c0.012-0.015,0.027-0.027,0.044-0.035
		c-0.01-0.004-0.016-0.009-0.023-0.013l0.887-0.888c-0.044-0.054-0.101-0.09-0.137-0.153c-0.037-0.068-0.07-0.141-0.098-0.219
		l-0.426,0.425l0.014,0.007L12.5,13.902L12,14.401l-0.564-0.565l-0.454,0.179c-1.296,1.582-3.036,2.148-3.036,2.148
		c0.608-0.773,0.845-0.938,0.147-2.014c-0.697-1.073-0.209-1.59-0.209-1.59c0.599,0.761,1.979,1.014,2.769,1.098l0.194-0.089
		c-0.019-0.009-0.041-0.021-0.065-0.037l-0.078,0.036l0.054-0.049c-0.185-0.123-0.509-0.409-1.122-1.021
		c-0.535-0.534-1.397-1.343-1.397-1.343l-0.015-0.011c0,0-0.075-0.966,1.098-1.097c0.564-1.432,1.216-0.868,1.216-0.868
		c0.747,0.439,1.27,1.144,1.606,1.734c0.004-0.019,0.009-0.044,0.016-0.067c0.011-0.038,0.042-0.113,0.042-0.113
		s0.005,0.014,0.015,0.033c0.017,0.018,0.021,0.024,0.021,0.024s0.016-0.056,0.028-0.088c0.013-0.031,0.033-0.082,0.033-0.082
		s0.003,0.015,0.016,0.031c0.013,0.017,0.026,0.02,0.026,0.02s0.016-0.05,0.032-0.078c0.017-0.028,0.043-0.062,0.043-0.062
		s0.044,0.062,0.063,0.102c0.016,0.039,0.028,0.104,0.028,0.104s0.018-0.009,0.029-0.023c0.014-0.014,0.036-0.048,0.036-0.048
		s0.021,0.065,0.026,0.095c0.008,0.033,0,0.095,0,0.095s0.012-0.002,0.025-0.016c0.011-0.014,0.024-0.031,0.024-0.031
		s0.025,0.084,0.034,0.131c0.013,0.046,0.008,0.125,0.008,0.125s0.021-0.019,0.033-0.034c0.011-0.011,0.026-0.03,0.026-0.03
		s0.005,0.062,0.005,0.105c-0.002,0.043-0.016,0.11-0.016,0.11s0.011-0.008,0.026-0.018c0.015-0.008,0.03-0.016,0.03-0.016
		s-0.019,0.082-0.033,0.109c-0.013,0.026-0.045,0.087-0.045,0.087s0.021-0.002,0.041-0.011c0.021-0.01,0.035-0.021,0.035-0.021
		s-0.143,0.216-0.294,0.292c0.07,0.169,0.104,0.267,0.113,0.295l0.387,0.107l-0.343,0.398l-0.879,0.689l-0.281,0.075l-0.226,0.104
		l-0.125,0.125l0.097-0.044l0.279-0.075l0.229-0.064l0.21-0.083l0.921-0.919l0.263,0.264c0.057-0.07,0.109-0.134,0.16-0.194
		l-0.275-0.063l-0.005,0.014V12.25l-0.043-0.008L13,12.117l0.146-0.865l0.094-0.273l0.078-0.225L13.6,9.525
		c-0.073-0.219-0.173-0.543-0.216-0.723c-0.033,0.184-0.096,0.363-0.218,0.462c-0.021,0.017-0.047,0.031-0.071,0.046l0.063,0.238
		l0.075,1.114l-0.096,0.275L12.991,11.8l-0.34-2.331c-0.185,0.033-0.336,0.033-0.336,0.033s0.038-0.021,0.07-0.069
		c0.033-0.049,0.024-0.051,0.024-0.051s-0.075,0.022-0.211,0.002c-0.136-0.02-0.232-0.102-0.232-0.102S12,9.279,12.028,9.262
		s0.034-0.036,0.034-0.036s-0.078-0.025-0.141-0.06c-0.064-0.035-0.178-0.133-0.178-0.133s0.063,0.004,0.088-0.007
		c0.024-0.01,0.033-0.034,0.033-0.034s-0.09-0.055-0.144-0.125c-0.054-0.072-0.086-0.176-0.086-0.176s0.033,0.013,0.07,0.009
		c0.037-0.004,0.04-0.025,0.04-0.025s-0.076-0.082-0.114-0.148c-0.04-0.066-0.072-0.199-0.072-0.199s0.075,0.023,0.105,0.025
		c0.031,0.002,0.08,0.002,0.08,0.002s-0.059-0.104-0.086-0.18c-0.03-0.077-0.074-0.248-0.074-0.248s0.026,0.018,0.072,0.035
		c0.044,0.015,0.062,0.015,0.062,0.015s-0.044-0.115-0.064-0.185c-0.021-0.07-0.052-0.188-0.052-0.188s0.026,0.025,0.067,0.036
		c0.043,0.01,0.066-0.005,0.066-0.005S11.698,7.53,11.69,7.459C11.685,7.39,11.685,7.3,11.685,7.3s0.158,0.043,0.24,0.09
		c0.083,0.045,0.189,0.141,0.189,0.141s0.017-0.04,0.021-0.078c0.005-0.041-0.004-0.129-0.004-0.129s0.122,0.082,0.174,0.128
		c0.054,0.045,0.123,0.161,0.123,0.161s0.021-0.02,0.024-0.061c0.003-0.039,0-0.084,0-0.084s0.155,0.11,0.235,0.176
		c0.078,0.064,0.174,0.205,0.174,0.205s0.011-0.061,0.014-0.098c0.004-0.041,0.006-0.09,0.006-0.09s0.089,0.101,0.145,0.177
		c0.056,0.075,0.123,0.205,0.123,0.205s0.007-0.027,0.022-0.062C13.184,7.946,13.2,7.914,13.2,7.914s0.073,0.165,0.088,0.229
		s0.038,0.21,0.038,0.21s0.034-0.029,0.055-0.074c0.021-0.041,0.031-0.078,0.031-0.078s0.022,0.26-0.015,0.532
		c0.055,0.119,0.166,0.407,0.257,0.58l0.371-1.633c-0.039-0.019-0.078-0.042-0.119-0.063l0.011,0.017
		c-0.341-0.071-0.595-0.182-0.784-0.316c-0.005-0.005-0.011-0.009-0.016-0.012c-0.025-0.019-0.049-0.038-0.072-0.057l0.004-0.105
		c-0.11-0.094-0.211-0.324-0.21-0.887c-0.196-1.043-0.351-0.551,0.023-2.558c0.194-0.881,0.906-0.086,1.034,0.348
		c-0.241,0.555-0.578,1.184-0.578,1.184c-0.022,0.047-0.007,0.149,0.025,0.277c0.073-0.139,0.35-0.668,0.559-1.147
		c0.131-0.302,0.232-0.581,0.24-0.729c0,0,0.498,0.575,0.928,2.295c0,0,0.308,0.864,0.858,0.806c0,0-0.048,0.205-0.164,0.444
		c0.276-0.266,0.759-0.848,0.647-1.635c0,0,0.914,2.539-1.427,2.365l0.021-0.021c-0.131,0.031-0.275,0.036-0.44-0.004
		c0,0-0.045-0.009-0.118-0.031c-0.01,0.166-0.043,0.499-0.149,0.566c-0.057,0.034-0.155,0.427-0.255,0.884
		c0.035-0.041,0.07-0.079,0.107-0.116c0.138-0.13,0.288-0.22,0.448-0.279c0.163-0.056,0.335-0.085,0.521-0.068
		c0.187,0.017,0.384,0.062,0.615,0.211c-0.093,0.264-0.221,0.424-0.357,0.559c-0.138,0.131-0.288,0.22-0.45,0.278
		c-0.162,0.057-0.334,0.083-0.521,0.068c-0.146-0.015-0.299-0.047-0.469-0.13c-0.104,0.522-0.185,0.986-0.185,0.986l0.541-0.315
		l-0.61,0.614l-0.239,1.049c0.008-0.009,0.022-0.025,0.028-0.031c0.041-0.037,0.008,0.019-0.044,0.101l-0.025,0.109l-0.039-0.009
		c-0.051,0.078-0.103,0.161-0.154,0.245l0.076,0.076l1.279-0.502l-0.006-0.112h-0.013l0.012-0.007l-0.003-0.042l0.105-0.011
		c-0.13-0.317-0.183-0.588-0.176-0.816c-0.002-0.007,0-0.014-0.002-0.021c0.004-0.031,0.006-0.062,0.01-0.091l0.084-0.053
		c0.015-0.145,0.151-0.361,0.619-0.677c0.751-0.75,0.258-0.602,2.127-1.422c0.836-0.335,0.581,0.699,0.294,1.05
		c-0.595,0.111-1.306,0.188-1.306,0.188c-0.052,0.009-0.127,0.078-0.215,0.179c0.155-0.018,0.75-0.088,1.264-0.185
		c0.323-0.061,0.611-0.134,0.737-0.211c0,0-0.107,0.394-0.617,1.114l0.157,0.103l0.071-0.094c0,0,0.112-0.015,0.213,0.191
		c0.028,0.059,0.032,0.13,0.026,0.203c0.049-0.029,0.092-0.053,0.117-0.064c0.062-0.029-0.013,0.033-0.127,0.125
		c-0.025,0.153-0.082,0.288-0.09,0.304l0.142-0.008c0.062-0.143,0.234-0.634-0.225-0.938l0.389-0.556c0,0,0.666,0.803,0.41,1.461
		l0.661-0.038c0.009-0.044,0.019-0.088,0.029-0.133L19.238,11.6c-0.026-0.348,0.009-0.623,0.084-0.84
		c0.003-0.007,0.005-0.014,0.008-0.019c0.011-0.029,0.022-0.06,0.035-0.085l0.096-0.024c0.059-0.132,0.257-0.294,0.801-0.453
		c0.325-0.164,0.479-0.272,0.621-0.354c-0.434,0.005-0.877-0.232-1.206-0.997l0.028,0.009c-0.088-0.101-0.159-0.23-0.201-0.393
		c0,0-0.011-0.045-0.025-0.12c-0.029,0.013-0.064,0.027-0.102,0.042c0.212-0.435,0.291-0.854,0.303-0.934l-0.226-0.063
		c0.212-0.347,0.344-0.644,0.354-0.667l0.221-0.497L19.88,6.208c0.004-0.043,0.004-0.082,0.004-0.123l0.25,0.082
		c0.005-0.004,0.01-0.006,0.014-0.008c0.242-0.188,0.369-0.314,0.478-0.414L20.53,5.704l0.103-0.06L20.7,5.677
		c0.018-0.014,0.035-0.028,0.053-0.042c-0.009-0.025-0.019-0.049-0.028-0.078c-0.406,0.243-0.769,0.47-0.839,0.514
		c-0.005-0.149-0.039-0.293-0.1-0.436l0.938-0.525c0.086-0.146,0.204-0.347,0.302-0.502c-0.03-0.005-0.061-0.012-0.091-0.021
		c-0.006-0.001-0.013-0.003-0.019-0.006c-0.222-0.066-0.465-0.197-0.732-0.423l0.021-0.002c-0.043-0.018-0.083-0.037-0.123-0.055
		l-0.755,0.927c-0.025-0.02-0.049-0.044-0.074-0.065c-0.079-0.062-0.155-0.117-0.227-0.165c0.183-0.23,0.312-0.41,0.307-0.459
		c-0.014-0.125,0.229-0.355,0.354-0.465C19.623,3.83,19.588,3.8,19.588,3.8c-0.131-0.107-0.22-0.223-0.273-0.346L19.31,3.483
		c-0.117-0.13-0.211-0.255-0.283-0.374c-0.124,0.438-0.26,0.615-0.376,0.675l-0.02,0.096c-0.026,0.013-0.056,0.026-0.083,0.038
		c-0.008,0.003-0.013,0.005-0.02,0.009c-0.005,0.002-0.011,0.003-0.018,0.006L18.457,3.68l-0.28,0.443
		c-0.057-0.212-0.153-0.409-0.304-0.529c-0.11-0.09-0.508-0.338-0.998,0.211c-0.08,0.096-0.153,0.185-0.223,0.267
		c-0.027-0.01-0.058-0.017-0.082-0.031l0.017,0.025c-0.154-0.026-0.291-0.06-0.413-0.101L16.135,3.69l-0.201,0.131
		c-0.042-0.059-0.089-0.116-0.142-0.17c-0.112-0.113-0.24-0.196-0.374-0.264c-0.427-0.796,0.337-1.956,0.337-1.956
		c-0.288,0.738,0.042,1.419,0.248,1.738c-0.059-0.257-0.055-0.468-0.055-0.468c0.521,0.186,1.023-0.582,1.023-0.582
		c0.819-1.573,1.438-2.014,1.438-2.014c-0.028,0.144,0.006,0.442,0.062,0.765c0.092,0.515,0.236,1.095,0.275,1.246
		c0.062-0.118,0.099-0.213,0.09-0.265c0,0-0.179-0.689-0.284-1.286c0.227-0.393,1.104-0.996,1.085-0.096
		c-0.018,0.316-0.03,0.566-0.045,0.773c0.357-0.228,0.701-0.341,0.701-0.341c-0.422,0.243-0.645,0.614-0.764,0.954
		c-0.027,0.161-0.059,0.272-0.101,0.369c-0.011,0.069-0.02,0.135-0.026,0.192c0.117-0.238,0.249-0.402,0.249-0.402
		c0.293,0.47,1.165,0.182,1.165,0.182c1.619-0.72,2.379-0.681,2.379-0.681c-0.111,0.097-0.269,0.35-0.426,0.639
		c-0.289,0.534-0.577,1.184-0.577,1.184c-0.101,0.193-0.207,0.346-0.321,0.473c0.002,0.007,0.007,0.018,0.012,0.027
		c0.163-0.073,0.331-0.174,0.484-0.312c-0.077,0.048-0.155,0.088-0.233,0.123c-0.003-0.009-0.008-0.018-0.01-0.028
		c0.112-0.126,0.22-0.281,0.321-0.471c0,0,0.29-0.653,0.577-1.186c0.421-0.166,0.815-0.208,0.815-0.208
		c-0.45,0.145-0.743,0.449-0.931,0.747c0.154-0.104,0.346-0.197,0.579-0.272c0,0,1.646-0.408,1.969-0.673
		c0,0-0.034,0.266-0.266,0.788l0.117-0.232c0,0,1.066,0.968,0.441,1.738L25.338,3.661z M12.564,9.16
		c0.066,0.019,0.184,0.027,0.322,0l0.083-0.071C12.942,9.025,12.914,8.96,12.882,8.9c-0.006-0.017-0.015-0.031-0.022-0.046
		c0.056-0.105,0.106-0.221,0.114-0.326c0.007-0.12,0.007-0.264-0.02-0.332c0.01,0.072-0.003,0.274-0.038,0.397
		c-0.028,0.09-0.058,0.133-0.095,0.194c-0.062-0.108-0.13-0.211-0.202-0.312c0.042-0.096,0.08-0.203,0.077-0.297
		c-0.003-0.101-0.017-0.225-0.042-0.28c0.014,0.062,0.019,0.234-0.002,0.341c-0.018,0.085-0.044,0.126-0.073,0.188
		c-0.173-0.214-0.365-0.413-0.565-0.599c0.157,0.176,0.304,0.362,0.438,0.555c-0.05,0.002-0.09,0.008-0.151-0.007
		c-0.084-0.018-0.204-0.081-0.239-0.113c0.026,0.041,0.109,0.092,0.181,0.131c0.065,0.033,0.158,0.039,0.242,0.036
		c0.024,0.038,0.05,0.072,0.074,0.111c0.042,0.06,0.083,0.12,0.121,0.182c-0.082,0.016-0.131,0.034-0.229,0.029
		c-0.119-0.006-0.297-0.061-0.357-0.094c0.048,0.046,0.174,0.095,0.28,0.127c0.099,0.028,0.225,0.015,0.342-0.004
		c0.035,0.058,0.068,0.116,0.101,0.176c0.021,0.045,0.043,0.091,0.063,0.136c-0.108,0.023-0.124,0.03-0.235,0.022
		c-0.128-0.011-0.314-0.048-0.381-0.074C12.323,9.09,12.485,9.139,12.564,9.16z M13.214,8.575c-0.003,0.073-0.021,0.226-0.089,0.368
		c-0.037,0.076-0.058,0.116-0.083,0.154l0.016,0.061c0.062-0.104,0.1-0.187,0.117-0.256C13.2,8.811,13.232,8.644,13.214,8.575z
		 M12.625,11.429c-0.022,0.026-0.072,0.08-0.136,0.112c-0.014,0.007-0.018,0.006-0.027,0.011c0.002,0.005,0.004,0.01,0.006,0.014
		c0.015-0.008,0.042-0.017,0.052-0.026C12.552,11.513,12.611,11.461,12.625,11.429z M12.397,11.175
		c-0.004,0.02-0.005,0.039-0.006,0.06c-0.002,0.035-0.002,0.068-0.007,0.102c-0.01-0.005-0.018-0.012-0.027-0.016
		c0.008,0.017,0.012,0.028,0.02,0.044c0.001,0,0.002,0.002,0.004,0.003c0,0.001,0,0.003,0,0.004
		c0.012,0.026,0.021,0.048,0.033,0.073c0-0.004,0.001-0.007,0.002-0.011c0.051-0.024,0.101-0.051,0.133-0.087
		c0.037-0.042,0.077-0.096,0.088-0.128c-0.019,0.031-0.08,0.101-0.126,0.135c-0.035,0.026-0.06,0.033-0.09,0.045
		c0.007-0.057,0.012-0.114,0.014-0.172c0.041-0.024,0.087-0.051,0.11-0.087c0.028-0.039,0.058-0.086,0.065-0.115
		c-0.016,0.027-0.061,0.092-0.098,0.125c-0.03,0.027-0.052,0.035-0.081,0.049c-0.005-0.127-0.017-0.254-0.039-0.379
		c0.01,0.108,0.011,0.218,0.006,0.326c-0.021-0.013-0.034-0.021-0.055-0.045c-0.026-0.028-0.052-0.087-0.057-0.109
		c-0.001,0.025,0.013,0.066,0.03,0.1C12.331,11.123,12.365,11.151,12.397,11.175z M10.73,13.207
		c-0.006-0.009-0.013-0.017-0.018-0.028c-0.179-0.293-0.393-0.564-0.633-0.805c-0.325-0.326-0.655-0.549-0.918-0.694
		c0.184,0.189,0.409,0.422,0.639,0.651C10.281,12.812,10.563,13.068,10.73,13.207z M14.122,16.649
		c-0.141-0.264-0.36-0.602-0.692-0.934c-0.233-0.232-0.498-0.439-0.787-0.617c-0.015-0.008-0.026-0.017-0.04-0.023
		c0.145,0.178,0.428,0.492,0.984,1.051C13.779,16.315,13.965,16.498,14.122,16.649z M17.679,11.705
		c-0.044,0.037-0.09,0.075-0.124,0.108l0.275-0.016L17.679,11.705z M14.668,11.974h0.006c0-0.003-0.001-0.005-0.001-0.008
		L14.668,11.974z M14.131,12.749c-0.004,0.001-0.012,0.004-0.017,0.005c-0.008,0.02-0.022,0.045-0.025,0.061
		c-0.007,0.033-0.015,0.1-0.007,0.125c0-0.029,0.004-0.088,0.025-0.144C14.118,12.771,14.125,12.762,14.131,12.749z M14.558,13.194
		c-0.062-0.062-0.125-0.13-0.18-0.199c0.02-0.004,0.034-0.007,0.058-0.001c0.033,0.003,0.08,0.025,0.096,0.036
		c-0.011-0.015-0.044-0.033-0.072-0.045c-0.028-0.011-0.062-0.013-0.095-0.009c-0.009-0.013-0.02-0.027-0.03-0.04
		c-0.018-0.021-0.034-0.044-0.052-0.066c0.032-0.008,0.049-0.018,0.087-0.018c0.046,0,0.117,0.015,0.139,0.026
		c-0.019-0.015-0.067-0.032-0.107-0.04c-0.038-0.009-0.088-0.001-0.133,0.009c-0.014-0.02-0.027-0.043-0.041-0.064
		c-0.007-0.013-0.016-0.027-0.022-0.041c-0.01,0-0.021,0.001-0.035,0.003c0.01,0.021,0.02,0.042,0.032,0.062
		c0.003,0.005,0.007,0.012,0.011,0.017c-0.019,0.043-0.035,0.087-0.035,0.127c0,0.046,0.002,0.101,0.016,0.127
		c-0.007-0.027-0.007-0.105,0.006-0.153c0.006-0.034,0.016-0.054,0.031-0.077c0.024,0.041,0.054,0.079,0.083,0.114
		c-0.013,0.038-0.024,0.081-0.021,0.116c0.003,0.039,0.01,0.086,0.022,0.106c-0.008-0.025-0.013-0.089-0.008-0.13
		c0.004-0.034,0.014-0.05,0.023-0.074C14.401,13.057,14.477,13.128,14.558,13.194z M14.402,12.725
		c-0.004,0.001-0.008,0.003-0.012,0.004c0.017,0.003,0.034,0.006,0.043,0.009C14.428,12.733,14.414,12.729,14.402,12.725z
		 M17.227,12.888c-0.163,0.076-0.33,0.14-0.488,0.171c-0.258-0.046-0.096-0.446,0.105-0.803c-0.109,0.01-0.207,0.02-0.298,0.029
		c-0.045,0.097-0.085,0.207-0.108,0.322l0.161,0.154l-0.168-0.092c-0.022,0.166-0.005,0.334,0.109,0.469
		c0,0-0.195,0.077-0.459,0.114c0.282,0.06,0.782,0.111,1.264-0.097C17.291,13.076,17.262,12.98,17.227,12.888z M17.407,11.778
		c0.06-0.04,0.121-0.08,0.188-0.124l-0.243-0.147l0.275-0.362l-0.432,0.261c-0.11,0.14-0.234,0.29-0.373,0.448l0.279-0.016
		c0.062-0.09,0.108-0.155,0.108-0.155L17.407,11.778z M22.173,3.987c-0.024,0.046,0.009,0.023,0.067-0.036
		C22.206,3.953,22.173,3.987,22.173,3.987z M20.912,5l1.459-0.815c-0.011-0.043-0.022-0.087-0.031-0.131l-0.005,0.018
		c-0.005-0.006-0.01-0.013-0.013-0.021C22.315,4.028,22.307,4.01,22.3,3.996c-0.073,0.079-0.15,0.162-0.23,0.243
		c-0.251,0.257-0.578,0.437-0.987,0.377C21.022,4.74,20.954,4.888,20.912,5z M20.969,5.496l-0.086-0.044l-0.102,0.06l0.087,0.039
		C20.898,5.532,20.933,5.514,20.969,5.496z M21.226,6.258c-0.034-0.024-0.064-0.051-0.097-0.076
		c-0.027,0.022-0.057,0.047-0.089,0.076C21.079,6.258,21.142,6.256,21.226,6.258z M21.887,6.164l-0.016,0.013l0.016,0.024V6.164z
		 M21.889,6.099c-0.021,0.001-0.042,0.002-0.062,0.003l0.022,0.036l0.038-0.01L21.889,6.099z M22.328,6.183l-0.175-0.091
		c-0.049,0.001-0.1,0.003-0.151,0.004l0.258,0.127c0.015,0,0.026-0.001,0.04-0.001L22.328,6.183z M22.797,4.98
		c-0.077-0.071-0.151-0.15-0.211-0.26c0,0-0.023-0.039-0.056-0.109c-0.13,0.106-0.399,0.303-0.521,0.27
		c-0.063-0.019-0.422,0.171-0.827,0.402c0.054-0.002,0.107-0.001,0.157,0.001c0.037,0.003,0.07,0.015,0.105,0.021
		c0.231-0.081,0.542-0.179,0.979-0.313C22.59,4.947,22.711,4.948,22.797,4.98z M18.051,9.093c0.077,0.084,0.162,0.161,0.256,0.222
		c0.146,0.093,0.312,0.155,0.496,0.182c0.192,0.023,0.396,0.024,0.662-0.067c-0.026-0.271-0.115-0.453-0.216-0.611
		c-0.053-0.079-0.11-0.147-0.175-0.208c-0.08,0.09-0.17,0.174-0.274,0.244C18.58,9.005,18.33,9.084,18.051,9.093z M21.36,9.06
		c0.706-0.054,1.646-0.663,1.646-0.663L21.988,7.75C21.988,7.75,20.897,8.922,21.36,9.06z M22.636,6.986c0.495,0.419,0.09,1,0.09,1
		l0.353,0.287c0.797-0.592,0.008-1.794,0.008-1.794L22.636,6.986z M22.747,7.381c-0.077-0.216-0.189-0.214-0.189-0.214l-0.407,0.425
		l0.452,0.353C22.603,7.944,22.823,7.599,22.747,7.381z M18.482,3.938c0.004,0.002,0.006,0.004,0.008,0.008
		c0.012,0.014,0.02,0.028,0.028,0.04l-0.01-0.056C18.499,3.933,18.49,3.936,18.482,3.938z M19.882,6.068
		c-0.008,0.006-0.016,0.009-0.016,0.009l0.016,0.005C19.88,6.078,19.88,6.073,19.882,6.068z M17.834,4.889
		c-0.422,0.306-0.93,0.621-1.062,0.705c-0.021,0.062-0.037,0.135-0.056,0.212c0.106,0.505,0.145,1.203-0.23,1.753
		c-0.08,0.116-0.178,0.216-0.284,0.305l-0.49,0.518c0.029,0.015,0.056,0.024,0.084,0.041l0.298,0.169
		c0.008-0.002,0.017-0.008,0.021-0.008c0.127-0.003,0.32-0.274,0.416-0.411c0.05,0.055,0.086,0.086,0.086,0.086
		c0.122,0.119,0.25,0.19,0.378,0.229l-0.028,0.007c1.929,1.338,2.432-1.312,2.432-1.312c-0.307,0.734-1.017,0.991-1.389,1.077
		c0.222-0.145,0.366-0.297,0.366-0.297c-0.504-0.231-0.33-1.131-0.33-1.131c0.505-1.699,0.368-2.447,0.368-2.447
		C18.333,4.507,18.101,4.697,17.834,4.889z M14.243,10.371l0.147,0.173l0.664-0.174l-0.627-0.005c0,0,0.004-0.006,0.01-0.009
		C14.373,10.361,14.307,10.373,14.243,10.371z M17.276,3.788C16.683,4.466,16.428,4.777,16.295,5
		c0.004,0.064,0.008,0.131,0.009,0.202l0.214-0.064c0.021,0.052,0.1,0.247,0.165,0.516c0.019-0.014,0.031-0.027,0.054-0.041
		c0,0,0.013-0.008,0.035-0.021c0.036-0.129,0.076-0.224,0.116-0.255c0,0,0.61-0.37,1.104-0.725
		C18.098,4.174,17.891,3.129,17.276,3.788z M18.52,7.804c0.571-0.42,1.048-1.432,1.048-1.432l-1.205-0.015
		C18.363,6.357,18.053,7.93,18.52,7.804z M19.114,6.17l0.45,0.06c0.363-0.923-0.942-1.529-0.942-1.529L18.51,5.37
		C19.151,5.463,19.114,6.17,19.114,6.17z M18.988,6.2c0,0,0.005-0.41-0.175-0.556c-0.18-0.142-0.274-0.081-0.274-0.081L18.415,6.14
		L18.988,6.2z M15.976,6.524c0.278-0.65,0.175-1.765,0.175-1.765l-1.046,0.6C15.104,5.359,15.638,6.87,15.976,6.524z M15.656,4.816
		l0.418-0.178C15.92,3.659,14.488,3.8,14.488,3.8l0.241,0.634C15.328,4.189,15.655,4.815,15.656,4.816z M15.131,4.518
		c-0.227-0.034-0.278,0.068-0.278,0.068l0.188,0.559l0.523-0.238C15.563,4.907,15.357,4.551,15.131,4.518z M20.88,13.268
		c0.704,0.085,1.745-0.328,1.745-0.328l-0.869-0.834C21.756,12.105,20.454,13.039,20.88,13.268z M22.54,11.485
		c0.403,0.509-0.109,0.996-0.109,0.996l0.288,0.353c0.896-0.422,0.362-1.757,0.362-1.757L22.54,11.485z M22.428,11.647l-0.484,0.336
		l0.375,0.436c0.001-0.001,0.283-0.297,0.254-0.524C22.538,11.668,22.428,11.647,22.428,11.647z M10.904,17.837
		c-0.065,0.046-0.151-0.122-0.229-0.062c0,0-0.845,1.052-1.366,0.664c-0.522-0.387,0.229-1.72,0.229-1.72
		c0.008-0.024,0.299-0.403,0.299-0.403s-0.063-0.625-0.696,0.006c-0.63,0.632-1.349,0.498-1.692,0.285
		c-0.348-0.213,0.506-1.318,0.506-1.318c0.062-0.074,0.13-0.162,0.178-0.227c-0.03-0.063-0.088-0.17-0.197-0.34
		c-0.155-0.238-0.261-0.459-0.334-0.668c-2.958,4.317-6.116,8.549-7.468,9.056l3.045,2.966c1.642-2.569,4.942-5.413,8.309-7.899
		c-0.08-0.044-0.162-0.091-0.244-0.146C11.073,17.923,10.968,17.865,10.904,17.837z M12.063,14.528
		c-1.833,1.308-2.466,3.291-2.466,3.291c0.775-0.609,0.938-0.844,2.014-0.146c1.076,0.697,1.594,0.209,1.594,0.209
		C12.107,17.019,12.063,14.528,12.063,14.528z"/>
</g>
</svg>
